# xmcd
#
# Track frame offsets:
#   150
#   15270
#   28766
#   43481
#   60729
#   75311
#   94338
#   107736
#   121603
#   138675
#   154808
#   169746
#   184848
#   202794
#   220189
#   239012
#   256059
#   272261
#   288126
#   303564
#   320215
#   334819
#   347667
#
# Disc length: 4798 seconds
#
# Revision: 0
# Processed by: cddbd v1.5.2PL0 Copyright (c) Steve Scherf et al.
# Submitted via: uFREEDB ActiveX Control 1.5
#
DISCID=4812bc17
DTITLE=Sertanejo Universitário - Vol.4
DYEAR=2008
DGENRE=Country
TTITLE0=Eu to Solteiro - Rodrigo Freitas e Xavier
TTITLE1=Ja perdi Vergonha - Cleiton e Huggo
TTITLE2=To na Mão - Kudu Ferraz
TTITLE3=A Vida é Assim - Tania Ayres
TTITLE4=Tudo Bem - Diego e Ricardo
TTITLE5=Coração Bandido - Leonardo
TTITLE6=O Bocão - Teodoro e Sampaio
TTITLE7=Tem que Ser Voce - Victor e Léo
TTITLE8=Faltou Coragem - Cezar e Paulinho
TTITLE9=Na Cara do Meu Coração - Rick e Renner
TTITLE10=Falando Serio - João Bosco e Vinícius
TTITLE11=Por pra Dentro - Gino e Geno
TTITLE12=Princesa - Jules e Joelson
TTITLE13=Baladeira - Ronny e Rangel
TTITLE14=Dificil não Falar de Amor - Daniel
TTITLE15=Vem me Namorar - Roberto Cristiano
TTITLE16=Depois das Seis - Alan e Aladim
TTITLE17=Você Vai Voltar pra Mim - Nathália
TTITLE18=Minha pequena - Don e Juan
TTITLE19=Vai pescar moçada - Gian e Giovani
TTITLE20=Parei - Ronny e Rangel
TTITLE21=Galera do boteco - Marcos e Fernando
TTITLE22=Chegou Feriado (Kombi) - Alex e Konrado
EXTD=
EXTT0=
EXTT1=
EXTT2=
EXTT3=
EXTT4=
EXTT5=
EXTT6=
EXTT7=
EXTT8=
EXTT9=
EXTT10=
EXTT11=
EXTT12=
EXTT13=
EXTT14=
EXTT15=
EXTT16=
EXTT17=
EXTT18=
EXTT19=
EXTT20=
EXTT21=
EXTT22=
PLAYORDER=
